<?xml version="1.0" standalone="no"?>
<!DOCTYPE svg PUBLIC "-//W3C//DTD SVG 20010904//EN"
 "http://www.w3.org/TR/2001/REC-SVG-20010904/DTD/svg10.dtd">
<svg version="1.0" xmlns="http://www.w3.org/2000/svg"
 width="1080.000000pt" height="1080.000000pt" viewBox="0 0 1080.000000 1080.000000"
 preserveAspectRatio="xMidYMid meet">
<metadata>
Created by potrace 1.14, written by Peter Selinger 2001-2017
</metadata>
<g transform="translate(0.000000,1080.000000) scale(0.100000,-0.100000)"
fill="#000000" stroke="none">
<path d="M575 10728 c-10 -100 -24 -130 -24 -55 -1 69 -17 75 -26 10 -3 -27
-11 -66 -16 -87 -15 -56 -28 -249 -18 -260 5 -6 9 -23 9 -38 0 -31 27 -50 40
-29 4 7 10 66 14 132 4 66 13 152 21 192 25 121 33 207 19 207 -8 0 -15 -26
-19 -72z"/>
<path d="M226 10768 c-9 -12 -16 -43 -16 -68 0 -25 -7 -83 -15 -130 -8 -47
-15 -86 -15 -88 0 -12 -28 21 -90 108 -40 55 -76 100 -81 100 -5 0 -9 -44 -8
-97 l0 -98 15 48 c8 26 16 47 19 47 12 0 98 -136 130 -205 101 -220 161 -385
141 -385 -3 0 -18 18 -32 40 -17 25 -31 37 -36 32 -12 -12 10 -56 55 -110 l34
-41 -13 -53 c-8 -29 -14 -67 -14 -85 0 -18 -3 -33 -7 -33 -5 0 -27 31 -50 68
-23 37 -82 121 -132 187 -74 97 -90 125 -86 145 3 15 -1 34 -9 45 -14 18 -15
14 -16 -52 0 -39 3 -73 8 -75 12 -5 87 -99 152 -193 62 -88 146 -185 162 -185
4 0 8 23 8 51 0 28 8 79 17 114 16 61 16 66 -5 158 -19 81 -40 144 -130 374
-12 32 -13 47 -5 65 11 22 12 21 12 -14 1 -45 17 -57 43 -31 18 18 18 25 8
109 -6 48 -11 125 -10 169 1 44 1 86 1 93 -1 19 -18 14 -35 -10z"/>
<path d="M2480 10505 c-36 -8 -73 -12 -82 -9 -22 7 -167 -78 -261 -153 -68
-55 -135 -131 -164 -187 -9 -17 -36 -55 -60 -85 -41 -50 -43 -55 -28 -70 15
-15 23 -9 90 64 47 50 75 74 75 63 0 -10 -12 -25 -26 -35 -15 -9 -55 -54 -89
-100 -55 -72 -64 -81 -76 -67 -11 13 -10 30 4 97 10 45 20 93 24 106 4 17 2
22 -7 19 -8 -2 -25 -37 -38 -76 -13 -40 -27 -70 -32 -67 -15 9 -48 128 -55
195 -9 89 -31 163 -55 185 -29 26 -46 6 -54 -65 -6 -52 -4 -65 22 -117 36 -72
79 -235 88 -328 7 -86 -29 -243 -141 -614 -91 -302 -112 -358 -182 -489 -49
-91 -73 -117 -73 -78 0 7 -9 21 -21 32 -28 25 -40 49 -121 248 -142 347 -160
391 -189 448 -16 32 -53 86 -82 121 -29 34 -63 78 -76 97 -14 19 -35 47 -48
61 l-24 26 43 26 c50 29 116 102 213 237 68 94 69 96 82 189 8 56 22 109 33
128 11 19 20 43 20 54 0 10 16 36 35 58 19 21 35 46 35 55 0 32 -35 15 -90
-43 -40 -43 -62 -59 -81 -59 -35 1 -86 -34 -203 -137 -100 -87 -198 -165 -209
-165 -3 0 -3 24 0 53 3 33 -1 82 -12 130 -24 110 -35 106 -142 -55 -96 -143
-119 -189 -109 -214 9 -25 30 -11 43 29 18 54 153 251 164 240 17 -17 22 -110
9 -178 -11 -58 -20 -75 -64 -126 -28 -32 -60 -73 -69 -91 -10 -18 -12 -25 -4
-15 8 9 17 17 21 17 3 0 6 -8 6 -17 1 -13 11 -6 38 24 20 23 87 80 147 127
127 98 372 276 380 276 9 0 5 -47 -11 -117 -14 -64 -22 -78 -92 -159 -101
-115 -203 -214 -223 -214 -9 0 -24 9 -34 20 -20 22 -33 24 -54 11 -12 -8 -13
-12 -1 -25 22 -28 4 -29 -82 -4 -68 19 -93 22 -138 16 -103 -16 -109 -61 -10
-71 34 -4 89 -14 123 -23 44 -11 80 -14 125 -9 73 8 88 -1 145 -85 17 -25 49
-65 72 -91 23 -25 54 -63 68 -85 26 -39 177 -390 177 -409 -1 -14 -39 33 -126
154 -40 57 -101 133 -135 169 -60 64 -61 64 -54 31 4 -19 26 -54 49 -79 23
-25 65 -79 93 -120 28 -41 85 -118 128 -170 51 -63 93 -130 126 -199 28 -57
63 -123 79 -145 19 -29 33 -68 44 -129 9 -48 28 -126 42 -174 67 -229 104
-364 118 -424 8 -36 35 -134 60 -218 26 -84 46 -156 46 -159 -1 -4 -9 9 -20
28 -30 55 -24 23 31 -152 68 -220 97 -337 109 -438 11 -92 39 -279 47 -321 4
-22 1 -27 -21 -33 -46 -11 -50 -37 -21 -139 29 -99 52 -145 84 -164 11 -7 28
-32 39 -55 25 -57 51 -78 98 -81 l39 -2 16 -75 c10 -52 20 -75 30 -75 9 0 15
12 17 33 2 17 6 32 8 32 3 0 17 -13 31 -30 26 -31 75 -41 89 -19 4 7 20 -2 43
-24 20 -18 81 -67 136 -107 55 -41 119 -92 143 -114 35 -33 42 -37 42 -21 0
18 2 18 21 -5 31 -39 72 -110 66 -116 -3 -3 -32 8 -66 25 -33 17 -67 31 -75
31 -29 0 -29 -23 1 -49 135 -117 163 -144 159 -149 -7 -6 -120 88 -157 131
-14 16 -31 28 -38 26 -14 -5 135 -161 241 -252 39 -33 82 -82 104 -119 21 -35
62 -92 92 -128 30 -35 61 -80 69 -100 8 -19 41 -62 73 -95 32 -33 64 -72 71
-86 17 -33 117 -120 177 -155 47 -28 215 -74 269 -74 18 0 76 -16 129 -35 114
-41 134 -43 134 -14 0 19 4 21 31 15 17 -3 39 -6 47 -6 30 0 -41 -60 -88 -75
-37 -11 -40 -14 -17 -14 34 -1 59 11 115 56 26 22 50 33 65 31 20 -3 23 -10
28 -81 7 -81 25 -117 59 -117 34 0 45 27 31 73 -23 79 -24 84 -6 91 10 3 34 2
55 -4 32 -9 37 -13 33 -34 -4 -20 2 -28 33 -44 22 -11 48 -30 59 -42 31 -34
70 -50 123 -50 27 0 69 -7 92 -15 l42 -15 -26 35 c-15 19 -23 35 -19 35 10 0
111 -103 142 -145 12 -16 39 -48 60 -70 20 -22 54 -64 75 -93 36 -49 67 -65
81 -42 10 16 41 12 97 -15 31 -14 82 -27 123 -31 58 -5 87 -15 180 -63 60 -32
166 -93 234 -136 69 -43 159 -93 200 -112 42 -18 94 -43 116 -55 125 -67 133
-70 211 -73 72 -2 85 -6 188 -60 61 -32 157 -87 214 -123 126 -79 198 -102
404 -132 l157 -23 130 -77 c135 -79 199 -107 225 -97 30 12 16 26 -66 65 -46
21 -94 49 -108 61 l-25 22 34 -7 c18 -3 81 -27 140 -52 83 -35 121 -46 177
-50 60 -4 72 -8 80 -26 16 -37 57 -32 93 10 17 21 34 35 38 31 3 -4 8 -29 9
-55 l2 -48 -85 -27 c-47 -15 -90 -24 -95 -21 -5 3 -18 20 -29 38 -10 17 -19
24 -19 15 0 -8 7 -24 15 -35 8 -10 15 -24 15 -31 0 -7 -44 -26 -101 -44 -82
-25 -125 -32 -239 -38 -88 -5 -145 -12 -155 -21 -25 -21 -17 -50 24 -95 21
-23 44 -52 50 -64 10 -18 9 -21 -6 -21 -10 1 -29 7 -43 15 -56 32 -95 6 -113
-74 -7 -30 -19 -58 -28 -64 -36 -23 -239 65 -239 104 0 16 31 10 57 -11 31
-24 49 -25 61 -3 9 15 13 14 44 -5 45 -28 68 -29 43 -2 -20 22 -178 130 -190
130 -5 0 -19 10 -32 21 -12 12 -35 23 -50 24 -16 1 -98 36 -183 78 -85 41
-233 111 -327 155 -223 103 -276 138 -291 191 -13 42 -46 74 -101 97 -41 17
-275 54 -342 54 -27 0 -49 4 -49 8 0 16 -50 32 -97 32 -72 0 -127 34 -207 127
-38 46 -77 85 -86 88 -10 3 -43 -8 -75 -25 -31 -16 -72 -30 -90 -30 -31 0 -65
21 -65 39 0 4 -21 23 -47 41 -46 33 -49 34 -167 38 -139 4 -160 4 -319 1 -81
-2 -121 1 -130 10 -15 15 9 33 38 27 11 -3 34 -7 50 -11 30 -5 30 -5 5 7 -14
6 -58 26 -99 45 -49 22 -95 53 -139 94 -36 34 -102 86 -146 114 -45 29 -94 67
-111 85 -16 17 -42 38 -56 46 -15 7 -30 26 -34 41 -13 52 -40 67 -69 38 -24
-25 -238 -38 -328 -21 -137 27 -210 58 -275 117 -48 44 -65 47 -108 19 -16
-11 -39 -20 -49 -20 -11 0 -28 -7 -38 -17 -18 -17 -44 -13 -126 18 l-24 9 24
20 23 20 -24 20 c-13 11 -33 20 -45 21 -25 1 -46 5 -75 14 -12 3 -21 2 -21 -4
0 -16 42 -41 68 -41 13 0 20 -4 17 -10 -10 -17 -116 -12 -136 6 -32 29 -157
37 -374 24 -110 -7 -236 -10 -280 -8 -88 3 -87 5 -74 -72 4 -24 3 -25 -56 -25
-33 0 -85 3 -115 6 -30 4 -43 4 -27 2 58 -9 22 -20 -85 -26 -128 -8 -303 -9
-297 -3 2 3 62 14 133 25 139 23 146 25 146 46 0 23 -16 26 -82 16 -35 -6
-130 -17 -213 -26 -180 -18 -251 -36 -279 -68 -12 -14 -55 -36 -98 -52 -43
-15 -96 -40 -118 -56 -22 -16 -43 -29 -47 -29 -4 0 -40 19 -80 42 -66 38 -72
44 -67 67 4 14 16 33 27 42 19 15 16 17 -64 46 -46 17 -101 36 -121 42 -21 7
-38 15 -38 17 0 3 41 4 91 3 92 -1 117 7 106 34 -4 11 -33 16 -124 21 -65 4
-135 9 -156 11 l-37 5 0 -47 0 -48 81 -53 c79 -52 86 -65 44 -75 -11 -3 2 -5
30 -6 41 -1 63 -10 135 -55 119 -75 177 -103 195 -91 8 6 32 23 54 38 21 16
88 46 148 66 l108 38 235 7 c256 7 652 34 660 46 3 4 154 10 335 13 290 5 338
4 395 -11 51 -14 65 -21 70 -40 10 -42 85 -75 213 -92 44 -6 106 -24 144 -41
36 -16 66 -28 67 -27 18 47 26 48 165 29 52 -7 86 -8 90 -3 4 6 62 -4 140 -23
101 -25 140 -40 160 -59 15 -14 30 -26 34 -26 3 0 31 -9 62 -21 50 -19 56 -24
53 -47 -2 -18 -10 -28 -28 -32 -33 -8 -27 -10 130 -63 171 -58 244 -90 213
-95 -13 -2 -23 -9 -23 -16 0 -12 79 -27 245 -46 73 -9 106 -18 316 -93 142
-50 171 -66 215 -115 27 -31 37 -36 90 -39 72 -5 111 -19 117 -42 6 -22 114
-62 164 -60 21 1 83 -2 138 -6 107 -8 195 -38 445 -151 125 -56 126 -57 133
-92 7 -37 41 -60 219 -148 84 -42 176 -91 205 -110 83 -53 162 -90 243 -114
94 -28 121 -42 193 -100 43 -35 79 -54 133 -70 40 -12 77 -26 81 -32 3 -6 -6
-21 -20 -33 -34 -26 -35 -61 -2 -105 14 -19 25 -44 25 -56 0 -12 8 -32 18 -44
42 -52 80 27 98 204 6 62 11 74 47 113 22 24 48 43 59 43 30 0 75 27 80 48 7
25 -12 69 -45 108 -15 18 -27 36 -27 42 0 25 188 18 213 -7 6 -6 1 -24 -12
-46 -24 -41 -25 -45 -11 -45 5 0 29 20 52 45 23 25 47 45 52 45 6 0 -8 -19
-31 -42 -22 -24 -48 -58 -57 -76 -19 -37 -31 -41 -39 -11 -5 17 -9 19 -25 10
-27 -14 -65 -78 -58 -96 3 -9 21 -24 40 -36 l34 -20 -14 -52 c-8 -29 -14 -86
-13 -127 2 -78 -19 -140 -46 -140 -15 0 -65 75 -89 133 -16 38 -46 51 -46 18
0 -31 69 -159 101 -185 35 -30 47 -32 75 -12 17 13 20 11 39 -27 17 -36 25
-42 55 -45 19 -1 48 -3 64 -5 46 -3 41 17 -13 58 -66 50 -82 86 -88 198 -4 77
-1 109 21 197 37 148 55 180 143 252 98 80 295 181 320 163 9 -7 13 -17 9 -24
-15 -24 -90 -71 -113 -71 -18 0 -23 -5 -21 -17 5 -25 44 -19 90 13 41 29 61
25 52 -10 -8 -33 55 -96 95 -96 17 0 51 -15 82 -36 30 -20 68 -43 84 -51 47
-24 117 -95 102 -105 -6 -4 -81 -8 -165 -8 l-154 0 -35 -35 -35 -35 8 -128 c9
-140 6 -303 -5 -314 -4 -5 -27 12 -51 37 l-44 45 31 0 c44 0 50 17 14 38 -19
10 -31 25 -31 38 0 17 -12 26 -57 42 -32 12 -75 25 -96 31 -20 5 -51 21 -68
35 -31 26 -49 33 -49 18 0 -5 8 -16 19 -26 11 -10 16 -25 14 -39 -4 -18 4 -27
39 -46 24 -14 85 -65 136 -115 77 -75 92 -95 87 -113 -4 -19 -1 -23 20 -23 18
0 26 -7 31 -26 4 -17 18 -31 40 -40 31 -13 91 -55 196 -135 20 -16 46 -29 58
-29 11 0 44 -17 73 -39 29 -21 95 -65 147 -96 100 -61 224 -156 240 -184 4 -9
12 -13 15 -9 10 9 -80 103 -140 147 -53 39 -225 145 -286 177 -45 24 -161 128
-152 137 10 11 49 8 80 -5 15 -7 80 -49 143 -93 63 -45 142 -100 175 -122 33
-22 117 -90 186 -149 648 -560 707 -608 724 -594 11 9 16 6 26 -12 6 -13 26
-35 44 -50 24 -20 36 -42 45 -80 22 -92 75 -239 138 -379 81 -182 107 -272 93
-318 -5 -19 -8 -38 -5 -43 3 -5 -4 -24 -16 -43 l-22 -35 95 0 c67 0 97 4 101
13 5 9 7 9 12 0 4 -9 30 -13 76 -13 56 0 74 4 84 17 13 17 15 17 25 1 9 -16
30 -18 213 -18 204 0 204 0 210 23 3 12 3 33 -1 45 -8 32 6 28 81 -23 l68 -45
149 0 c127 0 149 2 149 15 0 9 -11 20 -25 25 -94 36 -145 68 -207 133 -39 40
-72 84 -79 106 -6 20 -26 52 -43 71 -18 19 -49 56 -70 82 -48 61 -81 71 -113
34 -17 -20 -29 -26 -45 -20 -19 6 -19 7 -5 16 27 14 20 35 -26 80 -24 24 -72
77 -107 118 -35 41 -88 101 -119 132 -51 54 -54 58 -30 58 36 0 54 -16 97 -87
45 -73 158 -213 172 -213 21 0 7 28 -49 98 -60 75 -119 172 -104 172 18 0 202
-59 258 -83 156 -66 369 -165 372 -173 1 -5 -22 -20 -51 -32 -43 -19 -59 -21
-74 -13 -12 6 -35 11 -52 11 -24 0 -33 -6 -40 -25 -26 -69 103 -225 293 -354
l47 -32 0 62 c0 58 -3 65 -50 130 -27 38 -50 73 -50 78 0 6 20 4 48 -4 26 -8
48 -15 50 -15 1 0 2 52 2 116 l0 116 -26 -6 c-19 -5 -82 17 -252 89 -127 54
-283 112 -355 132 -71 20 -138 44 -148 52 -10 9 -56 97 -102 195 -46 99 -89
182 -96 184 -24 8 -6 -46 64 -199 37 -79 69 -150 72 -158 5 -11 -2 -13 -36 -7
-46 7 -71 -4 -71 -31 0 -9 33 -50 73 -92 98 -102 171 -190 164 -197 -7 -7 -44
15 -229 141 -170 115 -307 224 -313 250 -2 11 -7 37 -10 57 -9 58 -63 127
-155 198 -47 36 -137 115 -200 176 -63 60 -158 139 -210 174 -53 35 -142 110
-202 168 -60 58 -108 101 -108 95 0 -6 34 -49 75 -96 74 -85 133 -136 255
-217 36 -24 117 -94 180 -155 63 -61 152 -139 198 -173 85 -65 142 -141 142
-190 0 -31 -13 -25 -42 18 -14 20 -32 35 -43 35 -17 0 -20 -6 -18 -50 l1 -50
-33 38 c-18 21 -50 71 -71 110 -36 69 -121 187 -136 187 -4 0 -11 -8 -16 -17
-9 -15 -20 -8 -83 47 -41 36 -117 105 -169 155 -107 101 -166 143 -290 205
-47 23 -116 64 -155 90 -38 26 -103 64 -142 84 -40 20 -73 39 -73 42 0 3 31 3
69 -1 57 -6 69 -4 74 9 6 14 -16 46 -31 46 -228 9 -300 20 -417 60 -66 23
-123 46 -126 52 -8 12 0 46 17 73 14 24 44 194 44 254 0 53 11 74 54 100 29
18 49 21 149 21 64 0 118 -4 121 -8 3 -5 -2 -31 -10 -58 -8 -27 -18 -84 -21
-126 -6 -76 -5 -78 16 -78 20 0 22 -3 15 -33 -11 -52 -6 -127 11 -153 30 -46
85 -23 101 41 3 17 12 37 19 45 22 26 45 134 45 214 0 65 -3 77 -20 86 -11 6
-20 21 -20 34 0 23 4 24 88 30 48 3 119 8 159 12 l72 6 88 -48 c48 -27 159
-83 245 -126 138 -68 166 -86 226 -147 127 -126 192 -158 226 -110 28 40 -5
82 -115 145 -96 56 -120 78 -160 149 -24 43 -46 66 -88 93 -31 19 -58 37 -60
39 -3 2 5 10 17 19 24 16 30 52 10 58 -12 4 -138 29 -211 43 -17 3 -34 0 -45
-10 -19 -17 -119 -31 -145 -21 -10 3 -25 20 -33 36 -8 16 -31 36 -50 44 -19 8
-34 19 -34 24 0 5 11 43 25 84 33 100 33 149 -1 181 -15 14 -22 25 -16 25 6 0
28 14 48 32 32 29 36 36 31 70 -4 30 -1 38 13 43 10 3 20 18 23 34 4 20 21 38
55 60 42 27 56 31 89 25 54 -8 99 16 120 64 8 20 19 44 23 52 11 22 202 139
228 140 12 0 33 -6 45 -14 19 -12 33 -10 122 16 55 17 113 32 129 35 20 4 24
8 15 14 -10 6 -6 9 13 9 18 0 26 -4 22 -13 -3 -9 13 -19 48 -30 52 -17 124
-57 102 -57 -6 0 -31 7 -54 15 -24 8 -45 13 -48 11 -8 -9 96 -55 165 -75 39
-10 160 -64 270 -120 l200 -101 123 -115 c67 -64 124 -114 127 -112 9 10 -67
144 -108 191 -43 48 -43 49 -15 42 18 -4 25 -3 21 4 -3 5 -1 10 4 10 6 0 24
-18 41 -41 23 -32 28 -47 23 -71 -6 -29 3 -39 145 -177 83 -80 167 -172 187
-203 56 -87 65 -84 65 22 0 73 -4 96 -22 127 l-22 38 22 -19 22 -19 0 155 0
155 -69 104 c-38 57 -99 138 -137 179 -37 41 -83 99 -103 130 -43 68 -117 218
-110 224 3 3 25 -1 51 -8 73 -23 151 -29 263 -21 l105 7 0 179 c0 152 -2 179
-15 179 -8 0 -15 5 -15 10 0 6 7 10 15 10 8 0 15 5 15 10 0 6 -12 10 -27 10
-20 0 -41 15 -82 60 -31 33 -70 69 -86 80 -32 21 -90 27 -100 10 -12 -19 -25
-9 -87 66 l-63 77 0 94 c0 72 -3 96 -15 103 -24 16 -34 12 -78 -29 -46 -44
-134 -91 -168 -91 -27 0 -54 25 -54 49 0 10 -7 24 -16 31 -8 8 -27 34 -41 59
-39 68 -63 91 -94 91 -35 0 -57 -22 -65 -65 l-6 -35 -113 0 c-124 0 -169 11
-238 59 -23 16 -59 36 -80 45 -21 8 -50 25 -64 36 -15 11 -41 20 -61 20 -31 0
-45 9 -100 65 -59 61 -82 72 -82 41 0 -24 60 -96 111 -133 l51 -36 -29 -23
c-16 -14 -42 -23 -61 -24 -42 0 -52 -24 -22 -56 32 -33 67 -30 119 11 24 19
49 35 55 35 6 0 64 -27 129 -60 l118 -60 103 0 c56 0 105 -3 108 -6 3 -3 -5
-16 -18 -30 -20 -19 -23 -28 -14 -43 5 -11 20 -21 32 -23 20 -3 23 -8 20 -46
-3 -37 -1 -42 17 -42 14 0 27 13 41 39 25 51 33 55 55 31 22 -24 47 -25 79 -5
21 14 32 13 127 -15 57 -16 115 -30 129 -30 51 0 71 -14 127 -83 31 -39 85
-101 120 -138 35 -37 59 -70 54 -74 -15 -9 -281 41 -400 75 -115 33 -168 37
-256 15 -33 -8 -95 -14 -137 -15 -71 0 -79 -2 -94 -25 -14 -21 -24 -25 -69
-25 -39 0 -59 6 -81 23 -25 19 -40 22 -129 22 -105 -1 -190 -18 -237 -49 -25
-17 -29 -16 -99 4 -64 19 -81 30 -148 94 -42 39 -91 82 -109 95 -19 13 -42 43
-53 69 l-20 45 27 28 c25 26 26 32 20 86 -11 91 -27 110 -156 177 -96 50 -123
59 -164 59 -46 -1 -53 2 -96 47 -25 26 -65 59 -88 74 -23 14 -42 33 -42 41 0
7 -10 26 -23 41 -20 23 -26 25 -45 15 -19 -10 -25 -6 -57 36 -29 38 -35 53
-29 73 3 14 9 64 11 112 4 81 6 87 29 92 38 10 58 60 58 146 0 80 -22 143 -57
164 -15 9 -23 5 -47 -23 l-28 -33 -11 38 c-17 63 -13 89 19 122 17 18 30 41
30 51 0 20 -25 51 -41 51 -16 0 -10 57 16 137 29 91 51 127 72 118 13 -4 14
-3 3 10 -43 51 -96 -38 -150 -250 -12 -48 -64 -105 -81 -88 -7 7 -8 27 -4 54
6 32 17 51 51 82 58 53 60 89 8 147 l-37 41 47 45 c25 25 46 50 46 56 0 11
-38 1 -65 -18 -11 -8 -37 -25 -57 -39 -21 -14 -38 -31 -38 -38 0 -7 20 -29 44
-50 25 -20 48 -46 51 -58 8 -25 -20 -59 -49 -59 -12 0 -32 -7 -45 -16 -16 -12
-37 -15 -76 -12 -44 4 -54 1 -65 -16 -14 -21 -11 -25 49 -58 17 -10 34 -24 37
-33 12 -31 -74 -125 -115 -125 -6 0 -16 12 -21 26 -9 24 -13 25 -57 18 -27 -3
-48 -7 -48 -8 0 0 -18 -21 -39 -44 -20 -24 -35 -49 -33 -56 3 -7 -3 -26 -14
-42 -28 -42 -23 -51 7 -14 38 45 53 23 20 -29 -27 -42 -46 -53 -46 -26 0 10
-16 0 -44 -27 -39 -39 -66 -93 -66 -134 0 -7 -13 -38 -30 -69 -16 -31 -30 -63
-30 -71 0 -8 -4 -14 -10 -14 -6 0 -6 9 0 25 23 62 -24 73 -53 12 -15 -33 -20
-36 -37 -27 -24 13 -24 9 -5 53 19 47 19 111 0 127 -9 7 -32 13 -52 14 -35 1
-37 0 -39 -34 -3 -57 -41 -145 -68 -158 -21 -9 -26 -8 -38 10 -31 47 -71 9
-193 -184 -40 -65 -65 -93 -65 -74 0 9 -31 173 -36 189 -4 12 -13 17 -27 15
-20 -3 -22 -8 -19 -68 l4 -65 -51 76 c-58 87 -104 124 -135 107 -27 -14 -47
11 -103 130 -48 102 -84 206 -102 295 -20 94 -66 99 -117 11 l-27 -45 -17 52
c-10 29 -25 58 -34 65 -22 16 -20 45 4 51 27 7 19 29 -8 25 -31 -5 -37 19 -22
89 10 47 10 68 1 100 -12 38 -14 40 -30 25 -46 -41 -59 0 -38 121 15 90 10
118 -19 106 -9 -3 -14 1 -14 11 0 21 -26 32 -43 17 -8 -6 -20 -29 -27 -51 -13
-39 -23 -49 -34 -31 -11 17 176 269 237 320 9 7 17 22 17 32 0 29 -35 24 -108
-16 -35 -20 -67 -34 -69 -31 -7 7 96 176 124 204 12 12 32 22 44 22 13 0 36 4
53 9 17 5 50 15 74 21 23 6 42 16 42 21 0 6 11 24 25 41 17 20 25 42 25 66 0
23 8 44 22 59 19 20 20 27 10 43 -6 11 -9 26 -6 34 3 7 -8 30 -25 49 -36 40
-40 67 -12 74 15 4 18 10 12 22 -47 97 -56 198 -28 301 24 85 30 149 17 166
-7 7 -16 11 -21 8 -5 -3 -9 -2 -9 2 0 11 63 104 71 104 4 0 12 14 18 32 11 31
7 40 -23 51 -17 6 10 62 32 65 40 6 47 29 18 63 -31 37 -31 39 -6 72 13 16 35
28 59 32 43 7 160 80 203 126 22 24 35 29 72 29 24 0 57 -5 72 -10 20 -8 31
-7 43 4 37 32 208 106 246 106 47 0 60 7 69 38 8 23 49 31 61 11 5 -6 13 -2
22 11 15 22 16 21 90 -52 67 -66 75 -71 87 -56 11 15 17 12 63 -35 27 -29 59
-65 71 -81 28 -37 28 -24 1 20 l-21 34 26 0 c47 0 31 36 -51 114 -75 71 -86
96 -42 96 10 0 28 5 39 12 15 10 22 9 38 -5 10 -9 27 -17 38 -17 27 0 71 -29
139 -92 33 -30 70 -60 82 -66 28 -15 63 -15 63 -1 0 8 12 9 37 4 51 -9 73 -22
73 -43 1 -22 114 -227 126 -227 5 0 15 -4 22 -8 14 -10 52 0 52 14 0 41 111
-59 160 -144 36 -62 37 -73 8 -53 -25 18 -65 21 -87 7 -20 -13 -3 -34 22 -27
15 4 30 -5 52 -29 47 -49 50 -72 14 -106 -50 -47 -30 -85 30 -54 35 17 42 5
16 -29 -22 -30 -19 -46 32 -151 l47 -97 -32 -27 c-17 -14 -34 -39 -38 -56 -4
-16 -25 -53 -46 -81 -42 -56 -47 -78 -21 -89 13 -4 27 3 46 26 26 28 32 30 60
22 41 -11 51 -50 15 -57 -13 -2 -48 -9 -80 -14 -31 -6 -66 -8 -77 -5 -22 6
-28 -6 -10 -24 5 -5 18 -25 27 -44 9 -19 42 -54 73 -78 48 -38 55 -48 46 -63
-14 -21 -50 -36 -96 -40 -49 -4 -59 -27 -36 -80 10 -23 26 -49 34 -56 31 -26
-81 -1 -136 29 -56 32 -81 24 -44 -15 16 -17 18 -25 9 -34 -8 -8 -8 -15 1 -26
8 -10 9 -16 1 -21 -24 -15 -9 -35 27 -35 20 0 44 -6 52 -14 9 -8 37 -16 64
-18 35 -3 52 -10 63 -26 19 -27 38 -29 31 -2 -3 13 19 -2 65 -44 38 -35 109
-87 156 -115 50 -30 114 -79 151 -117 84 -85 183 -134 355 -176 l128 -32 18
21 17 21 49 -39 c27 -22 86 -62 131 -90 46 -28 83 -55 83 -61 0 -6 -10 -28
-22 -49 -12 -21 -18 -42 -14 -46 12 -12 40 11 61 50 11 20 23 37 27 37 3 0 36
-43 72 -95 37 -52 98 -134 138 -182 39 -48 75 -93 80 -100 8 -11 -14 -83 -26
-83 -3 0 -27 12 -53 26 -33 17 -57 24 -76 20 -16 -3 -109 -46 -207 -96 -99
-49 -190 -90 -203 -90 -13 0 -34 12 -48 26 -13 14 -38 34 -55 45 -52 32 -87 3
-59 -50 8 -16 11 -31 8 -35 -8 -8 -82 4 -107 17 -32 16 -124 94 -190 160 -33
34 -97 96 -141 137 -44 42 -106 113 -138 158 -51 73 -62 83 -85 80 -46 -5 -42
-52 17 -176 27 -59 60 -145 72 -191 11 -46 36 -112 54 -145 19 -34 43 -86 54
-117 37 -97 95 -158 133 -138 10 5 18 16 18 24 0 23 14 25 65 9 59 -17 107 -6
132 32 24 37 59 31 102 -16 20 -22 44 -40 53 -40 10 0 38 14 62 32 43 30 50
31 183 39 147 8 212 23 288 66 30 17 70 28 109 32 61 6 61 6 60 38 -1 24 7 40
41 73 l43 42 167 -171 c154 -156 185 -182 185 -148 0 7 -70 89 -156 182 -85
94 -158 177 -161 185 -4 8 -20 37 -36 63 -16 26 -27 50 -25 52 2 3 27 -11 56
-30 39 -27 51 -41 49 -57 -1 -17 7 -27 33 -39 58 -28 306 -293 397 -425 36
-51 138 -233 203 -365 35 -68 77 -147 96 -176 20 -31 31 -59 27 -71 -3 -12 1
-22 11 -25 13 -5 16 2 16 40 0 34 -9 60 -34 102 -39 65 -178 343 -173 347 1 2
35 -27 75 -63 63 -56 72 -69 68 -92 -4 -16 7 -57 29 -111 l34 -85 0 163 1 164
-75 113 c-62 95 -101 138 -242 273 -92 89 -195 182 -227 207 -58 45 -206 136
-336 208 -36 19 -73 44 -83 54 -9 11 -62 93 -117 182 -178 289 -268 389 -415
462 -86 43 -161 58 -280 59 -87 0 -124 20 -154 83 -33 67 -99 111 -258 171
-77 29 -78 30 -88 100 -7 42 -5 46 13 46 34 0 37 32 5 57 -15 13 -31 23 -35
23 -11 0 -38 56 -38 80 0 12 -10 25 -25 32 -32 15 -32 27 5 73 17 21 30 46 30
55 0 10 9 37 20 61 28 64 26 96 -11 130 l-31 29 37 56 c49 74 51 113 7 180
-38 60 -39 70 -11 100 32 34 18 67 -54 137 -89 86 -96 100 -84 146 l11 39 -63
58 c-35 33 -75 64 -90 69 -48 17 -61 34 -61 79 0 37 -5 46 -65 101 -35 33 -69
74 -75 91 -8 24 -23 36 -65 53 -31 13 -81 43 -113 68 -31 25 -80 56 -108 68
-28 13 -89 49 -137 79 -104 68 -123 76 -257 111 -58 16 -139 43 -180 62 -41
19 -114 50 -162 68 -47 19 -111 50 -142 70 -30 20 -60 34 -65 30 -21 -12 -11
-44 21 -67 68 -50 165 -155 188 -203 12 -27 31 -59 40 -70 44 -53 84 -144 74
-170 -5 -11 -15 -10 -59 5 -78 27 -145 38 -290 50 -139 11 -245 36 -337 77
-64 28 -91 25 -86 -9 2 -19 38 -41 195 -118 106 -52 193 -98 193 -102 0 -5
-10 -8 -22 -8 -13 0 -47 -11 -76 -25 -30 -14 -70 -25 -90 -25 -38 0 -125 -13
-174 -25 -23 -6 -39 5 -133 90 -87 78 -112 96 -133 93 -35 -4 -40 -37 -12 -83
11 -19 66 -75 121 -125 79 -72 103 -89 117 -82 11 6 30 4 56 -7 l39 -17 -29
-19 c-16 -10 -81 -71 -144 -136 -88 -90 -131 -126 -183 -153 -85 -45 -119 -45
-181 -5 -43 29 -49 30 -63 17 -23 -24 -8 -53 44 -87 34 -23 41 -31 26 -31 -25
0 -46 -23 -41 -47 6 -31 46 -43 107 -31 l54 9 43 -42 c24 -24 44 -50 44 -58 0
-33 -35 -100 -54 -103 -10 -2 -28 -16 -40 -31 l-21 -28 22 -41 c13 -22 21 -44
18 -48 -4 -7 -94 5 -103 15 -8 8 -42 -15 -42 -30 0 -8 12 -26 27 -40 32 -29
25 -31 -43 -10 -61 18 -59 18 -78 -1 -25 -24 -4 -50 56 -70 85 -27 129 -53
126 -72 -2 -13 6 -18 40 -22 l44 -5 -32 -30 c-18 -16 -50 -56 -72 -88 -42 -62
-82 -93 -168 -128 -74 -30 -92 -46 -79 -70 5 -11 18 -19 29 -19 40 0 28 -21
-42 -70 -196 -136 -214 -152 -202 -183 3 -8 24 -20 46 -28 38 -12 47 -11 115
13 43 15 75 22 79 17 3 -6 -18 -44 -46 -85 -47 -68 -80 -143 -80 -181 0 -24
40 -55 64 -49 34 8 48 -26 38 -96 -7 -44 -16 -65 -44 -96 -23 -26 -40 -57 -48
-93 -7 -30 -19 -68 -26 -85 -10 -23 -10 -34 -2 -42 21 -21 36 -13 68 32 59 87
120 106 157 49 13 -20 14 -28 3 -51 -6 -15 -22 -69 -35 -120 -18 -72 -29 -98
-47 -110 -84 -57 -177 -212 -218 -366 -19 -68 -21 -91 -13 -170 7 -78 11 -91
27 -95 11 -2 28 -14 39 -27 12 -16 29 -24 48 -24 25 0 33 -7 50 -42 37 -79 79
-152 91 -160 16 -10 81 1 91 16 4 6 5 29 2 51 l-5 40 13 -33 c7 -18 17 -36 23
-40 7 -4 31 -45 54 -92 27 -54 63 -106 102 -147 43 -44 62 -72 64 -95 10 -80
132 -197 374 -358 190 -126 417 -244 674 -352 101 -42 191 -87 386 -193 14 -8
54 -25 90 -38 49 -19 66 -30 70 -48 3 -12 19 -30 35 -39 42 -23 37 -42 -14
-61 -25 -9 -54 -28 -66 -43 -21 -26 -22 -26 -39 -8 -9 11 -49 34 -89 53 -56
26 -91 35 -157 40 -196 15 -274 35 -407 101 -94 47 -105 50 -128 38 -22 -12
-45 -7 -222 43 -212 61 -345 119 -458 202 -33 24 -112 79 -175 121 -63 42
-140 96 -170 119 -31 24 -116 76 -190 116 -74 40 -166 90 -205 110 -38 21 -79
39 -90 39 -11 0 -56 11 -100 25 -44 14 -91 25 -106 25 -14 0 -31 6 -37 12 -10
10 -15 10 -21 -1 -11 -18 -49 -8 -97 24 -25 17 -50 25 -80 25 -24 0 -54 5 -68
11 -20 9 -29 9 -42 -2 -14 -12 -23 -6 -71 49 -30 34 -63 62 -73 62 -26 0 -120
79 -120 101 0 10 -5 19 -10 19 -17 0 -24 -31 -11 -51 24 -39 1 -17 -43 40 -61
81 -79 117 -67 138 12 22 -28 76 -69 93 -16 6 -75 13 -132 14 -81 2 -113 7
-152 24 -46 21 -51 21 -100 7 -29 -9 -70 -24 -91 -35 -61 -31 -116 -26 -234
22 -84 35 -108 49 -127 78 -53 77 -304 253 -362 253 -44 0 -66 42 -37 71 13
13 13 19 -6 50 -12 20 -19 43 -16 50 3 8 -7 31 -24 52 -16 20 -29 41 -29 46 0
11 -90 52 -97 44 -4 -3 -20 5 -37 17 -17 13 -42 27 -56 30 -52 13 -77 55 -88
144 -9 75 -14 88 -57 149 -31 42 -64 76 -93 93 -82 47 -252 235 -252 279 0 18
-20 51 -59 100 -33 39 -69 96 -80 126 -66 177 -87 224 -111 246 -16 15 -41 64
-64 125 -21 54 -69 169 -108 254 -57 127 -68 159 -59 173 9 14 7 27 -10 60
-18 35 -22 59 -21 139 0 113 8 135 84 241 30 42 73 109 96 150 34 62 135 213
162 241 4 5 16 3 27 -3 16 -10 26 -9 54 5 51 27 112 70 174 124 49 43 62 50
108 53 41 2 56 -1 72 -17 11 -11 40 -27 65 -36 25 -9 79 -29 120 -44 92 -34
273 -46 371 -25 91 20 80 30 -23 23 -90 -5 -265 10 -280 25 -4 4 32 18 80 31
130 36 280 94 440 172 78 38 153 69 167 69 23 0 75 53 75 78 0 5 29 36 65 67
48 43 63 61 55 70 -8 9 10 32 68 89 53 51 92 101 122 153 68 123 148 239 183
266 17 13 61 39 96 57 80 40 131 80 131 102 0 15 -10 16 -89 11 -60 -4 -133 0
-226 13 -117 15 -151 16 -239 6 -56 -6 -138 -22 -183 -37 l-81 -25 -45 19
c-24 11 -98 36 -163 58 -107 34 -129 38 -219 37 -80 0 -109 -5 -148 -22 -52
-23 -167 -126 -167 -149 0 -25 23 -13 85 46 83 77 135 95 254 89 65 -4 116
-15 214 -47 70 -23 127 -45 127 -49 0 -4 -26 -20 -57 -37 -31 -16 -59 -36 -61
-42 -4 -15 29 -18 44 -5 23 21 118 53 140 48 12 -3 31 -20 41 -36 9 -17 23
-30 30 -30 18 0 17 6 -9 51 -12 21 -19 41 -16 44 3 3 36 15 74 26 100 30 263
36 405 15 63 -9 137 -17 164 -19 l50 -2 -57 -27 c-133 -62 -187 -119 -289
-304 -49 -90 -70 -115 -224 -267 -93 -93 -193 -184 -222 -203 -28 -18 -134
-72 -235 -120 -182 -85 -308 -129 -351 -121 -33 5 85 57 245 108 152 47 188
63 188 85 0 26 -23 25 -120 -6 -106 -35 -259 -51 -284 -31 -10 8 -43 9 -127 2
-264 -22 -279 -23 -285 -6 -9 22 79 105 110 105 13 0 45 12 70 26 26 15 49 24
52 21 7 -7 -108 -88 -164 -116 -51 -26 -51 -35 0 -21 51 15 139 75 252 173 71
61 131 102 208 142 102 53 122 68 123 90 0 5 26 24 58 43 50 30 75 62 48 62
-5 0 -71 -33 -147 -74 l-138 -74 -17 21 -17 21 -55 -36 c-30 -21 -89 -66 -129
-102 -60 -52 -79 -63 -100 -59 -14 3 -35 0 -47 -6 -28 -15 -27 -8 8 54 33 59
41 137 11 110 -9 -8 -21 -15 -26 -15 -22 0 -65 -60 -114 -157 -28 -57 -55
-103 -59 -103 -19 0 -33 31 -27 61 15 76 164 352 267 494 31 44 61 93 65 109
10 40 -9 31 -43 -20 -16 -23 -54 -76 -86 -117 -109 -144 -257 -441 -257 -517
0 -38 22 -61 36 -38 4 7 10 5 16 -6 7 -13 -2 -29 -42 -73 -39 -42 -50 -61 -46
-78 4 -15 -2 -29 -19 -45 -14 -13 -25 -32 -25 -42 0 -14 8 -18 40 -18 22 0 40
-3 40 -6 0 -9 -40 -41 -87 -69 l-42 -25 -25 23 -25 23 59 59 c52 52 73 85 54
85 -11 0 -134 -117 -211 -201 -42 -46 -80 -85 -85 -87 -4 -2 -3 10 3 27 6 17
19 33 30 36 17 6 28 35 13 35 -3 0 -38 -15 -77 -34 -58 -28 -90 -36 -162 -42
-49 -4 -94 -6 -100 -5 -7 2 -7 -1 0 -8 6 -5 36 -11 68 -13 l59 -3 -54 -35
c-53 -35 -75 -70 -44 -70 9 0 35 14 58 30 22 16 44 30 48 30 4 0 -23 -60 -61
-132 -38 -73 -69 -141 -69 -150 0 -10 -4 -18 -8 -18 -9 0 -74 215 -107 350 -9
36 -43 161 -77 279 l-61 214 18 51 c9 28 26 58 36 68 11 9 16 23 13 32 -3 8 9
52 26 98 18 46 65 180 105 298 116 342 140 405 232 587 l87 173 95 67 c52 38
135 102 185 143 50 42 107 86 126 100 19 14 61 49 92 78 57 55 110 92 129 92
7 0 6 -6 -2 -17 -9 -11 1 -8 31 9 33 19 44 31 43 46 -3 22 81 81 217 154 45
24 65 41 65 54 0 14 -6 18 -25 16 -31 -4 -73 -3 -220 3 -78 3 -136 -1 -180
-10z m125 -39 c-57 -18 -115 -57 -196 -132 -39 -35 -92 -79 -117 -96 -47 -32
-138 -71 -153 -66 -5 2 48 62 118 134 126 129 129 132 193 148 79 19 104 23
155 24 l40 1 -40 -13z m105 -46 c-14 -11 -28 -20 -32 -20 -14 0 4 29 20 33 34
9 36 6 12 -13z m-180 -87 c-100 -93 -125 -111 -255 -181 -107 -57 -144 -84
-81 -58 22 9 40 15 42 13 5 -4 -226 -211 -251 -224 -13 -7 -26 -22 -30 -33 -6
-20 -14 -23 -50 -21 -26 2 -65 -34 -65 -59 0 -18 -56 -120 -66 -120 -8 0 7 72
21 105 7 17 16 51 20 77 7 56 16 64 40 38 10 -11 22 -20 26 -20 5 0 24 24 43
53 18 30 61 83 94 119 52 55 80 74 186 127 101 50 142 77 212 141 81 74 151
120 183 120 8 0 -23 -35 -69 -77z m-290 14 c0 -1 -37 -38 -81 -82 -61 -60 -77
-71 -63 -46 27 48 144 152 144 128z m-1160 -16 c0 -10 -170 -134 -176 -128 -8
8 155 137 174 137 1 0 2 -4 2 -9z m627 -53 c-3 -8 -6 -5 -6 6 -1 11 2 17 5 13
3 -3 4 -12 1 -19z m80 -355 c-3 -10 -5 -4 -5 12 0 17 2 24 5 18 2 -7 2 -21 0
-30z m5308 -1163 c62 -27 163 -63 224 -80 122 -33 165 -52 255 -113 32 -21 87
-52 121 -68 61 -27 83 -44 72 -55 -9 -10 -92 17 -204 67 -110 48 -156 59 -168
39 -10 -16 -16 -13 -88 40 -74 53 -159 90 -210 90 -18 0 -37 4 -42 8 -12 8
-85 109 -85 117 0 10 14 5 125 -45z m122 -139 c61 -31 193 -135 193 -151 0 -6
-17 -10 -38 -10 -32 0 -45 7 -87 51 -94 97 -145 122 -145 70 0 -30 -23 -16
-48 28 -12 21 -22 42 -22 46 0 16 92 -6 147 -34z m303 -136 c23 -13 23 -14 4
-15 -11 0 -29 7 -40 15 -26 19 1 20 36 0z m-620 -56 c79 -12 140 -29 140 -40
0 -7 -25 -16 -102 -34 -39 -10 -236 57 -254 86 -7 12 94 6 216 -12z m875 -49
c49 -17 94 -35 99 -40 17 -17 -2 -22 -26 -6 -13 9 -59 24 -102 35 -44 11 -84
25 -89 30 -20 20 26 12 118 -19z m-4885 -79 c0 -13 -149 -73 -174 -69 -15 2 0
13 54 40 72 36 120 48 120 29z m-170 -6 c0 -3 -16 -12 -36 -20 -40 -16 -114
-21 -98 -6 15 15 134 38 134 26z m-364 -63 c-8 -9 -19 -13 -22 -9 -10 9 16 38
28 31 6 -4 4 -13 -6 -22z m5706 -39 c35 -5 38 -8 36 -37 -1 -17 2 -42 6 -55
l8 -23 -31 18 c-28 16 -91 92 -91 109 0 4 8 4 18 0 9 -4 34 -9 54 -12z m-1593
-13 c23 -1 24 -2 8 -11 -21 -12 -83 -4 -93 13 -5 8 3 9 26 5 18 -4 44 -7 59
-7z m1529 -58 c6 -18 -15 -14 -22 4 -4 10 -1 14 6 12 6 -2 14 -10 16 -16z m43
-75 c-1 -4 -1 -17 -1 -29 0 -19 -2 -20 -10 -8 -13 20 -13 53 1 48 6 -2 10 -7
10 -11z m-6151 -108 c-10 -22 -60 -56 -60 -41 0 9 63 72 67 68 2 -2 -1 -14 -7
-27z m71 -66 c-5 -10 -17 -27 -26 -38 -16 -19 -16 -19 -4 5 13 27 29 50 36 50
2 0 -1 -8 -6 -17z m4329 -71 c0 -5 -9 -17 -20 -27 -16 -14 -20 -15 -20 -4 0
16 19 39 32 39 4 0 8 -4 8 -8z m-4410 -25 c0 -2 -12 -14 -27 -28 l-28 -24 24
28 c23 25 31 32 31 24z m6568 -100 c5 -24 -15 -21 -21 4 -3 13 -1 19 6 16 7
-2 13 -11 15 -20z m-6619 -26 c-25 -34 -42 -41 -32 -13 6 17 45 53 51 47 2 -2
-6 -17 -19 -34z m4311 -7 c0 -40 -2 -45 -15 -34 -8 7 -15 21 -15 31 0 13 -5
17 -16 12 -12 -4 -15 -2 -12 8 3 8 10 14 16 14 5 0 14 3 18 8 17 16 24 5 24
-39z m-4406 -121 c-9 -124 -17 -130 -48 -37 -14 44 -26 84 -26 89 0 9 41 28
73 34 4 0 4 -38 1 -86z m6701 11 c47 -47 59 -78 45 -120 -22 -67 -35 -63 -80
27 -35 69 -40 86 -31 106 14 31 24 29 66 -13z m-2305 -84 c0 -5 -4 -10 -10
-10 -5 0 -10 5 -10 10 0 6 5 10 10 10 6 0 10 -4 10 -10z m2338 -250 c2 -14 -4
-34 -11 -45 -13 -16 -17 -17 -31 -6 -37 31 -25 85 18 79 14 -2 22 -11 24 -28z
m-6597 -253 c21 -48 40 -100 41 -115 4 -64 -3 -182 -11 -182 -14 0 -73 142
-82 200 -18 120 -28 169 -53 260 -14 52 -25 100 -25 105 0 11 67 -127 130
-268z m4224 213 c3 -5 2 -10 -4 -10 -5 0 -13 5 -16 10 -3 6 -2 10 4 10 5 0 13
-4 16 -10z m95 -96 c11 -12 10 -18 -3 -31 -19 -19 -22 -18 -31 20 -7 31 13 38
34 11z m-115 -73 c-5 -18 -65 -60 -65 -47 0 10 63 77 67 72 3 -2 2 -14 -2 -25z
m2295 -1 c0 -13 -11 -13 -30 0 -12 8 -11 10 8 10 12 0 22 -4 22 -10z m95 -262
c3 -7 6 -24 7 -37 3 -21 -1 -24 -35 -25 -44 -1 -49 15 -15 51 24 26 36 29 43
11z m-2630 -79 c-44 -45 -117 -99 -135 -99 -6 0 22 27 63 59 41 33 78 64 82
70 3 6 11 11 18 11 6 0 -7 -18 -28 -41z m-4026 -123 c16 -87 12 -90 -14 -11
-13 39 -21 74 -18 78 10 16 21 -8 32 -67z m70 17 c13 -47 14 -90 2 -97 -9 -6
-31 76 -31 114 0 33 18 22 29 -17z m6646 -43 c3 -6 -1 -7 -9 -4 -18 7 -21 14
-7 14 6 0 13 -4 16 -10z m-2646 -79 c-23 -28 -44 -50 -46 -48 -2 2 2 18 8 36
10 29 66 77 77 66 2 -2 -15 -27 -39 -54z m2721 -19 c13 -10 21 -25 18 -32 -3
-9 -14 -4 -39 18 -24 22 -29 32 -18 32 9 0 27 -8 39 -18z m-6651 -77 c11 -38
18 -71 17 -73 -2 -1 -11 0 -20 4 -20 8 -46 55 -46 83 0 23 23 78 27 65 2 -5
12 -40 22 -79z m3785 -25 c-33 -61 -77 -102 -82 -76 -3 16 97 140 106 132 2
-3 -9 -28 -24 -56z m3448 -5 c120 -31 257 -138 359 -281 71 -99 191 -294 181
-294 -16 0 -33 21 -117 140 -137 196 -156 219 -230 296 -81 81 -112 100 -193
115 -31 6 -68 17 -82 25 l-25 13 25 1 c14 0 51 -7 82 -15z m-332 -74 c96 -29
127 -34 135 -22 3 6 12 11 19 11 16 0 146 -118 146 -132 0 -31 -247 47 -332
105 -62 43 -88 75 -52 63 11 -3 48 -14 84 -25z m387 -52 c19 -12 32 -23 29
-26 -5 -6 -63 24 -71 37 -10 16 5 12 42 -11z m-7089 -21 c14 -14 16 -42 2 -33
-14 9 -32 45 -22 45 4 0 13 -5 20 -12z m3650 -51 c20 3 22 -1 22 -55 0 -79
-10 -91 -49 -63 -27 20 -31 28 -31 69 0 26 3 57 6 70 l7 23 11 -23 c8 -15 20
-22 34 -21z m-3512 -9 c28 -30 17 -30 -18 0 -16 13 -24 32 -15 32 2 0 16 -14
33 -32z m7090 -29 c24 -9 100 -96 91 -105 -11 -11 -177 100 -177 118 0 8 50 1
86 -13z m-3682 -144 c-5 -13 -34 -30 -34 -19 0 3 5 14 11 25 11 22 31 17 23
-6z m290 -191 l-7 -27 -18 34 c-10 19 -18 42 -19 51 0 14 4 13 25 -7 21 -18
24 -29 19 -51z m-3361 -76 c25 -18 36 -38 20 -38 -5 0 -26 16 -48 35 -41 36
-23 38 28 3z m5179 -15 c2 -30 8 -39 25 -41 13 -2 27 5 37 19 l15 22 10 -26
c6 -15 24 -58 40 -96 27 -65 29 -78 33 -232 3 -124 8 -173 21 -199 9 -19 32
-75 51 -123 59 -149 106 -189 162 -136 l22 20 70 -35 69 -35 53 -133 c28 -73
60 -147 70 -164 9 -17 22 -46 29 -65 6 -19 29 -56 51 -83 22 -26 40 -56 40
-66 0 -23 55 -76 105 -102 22 -12 73 -43 114 -71 142 -96 300 -153 396 -144
120 12 224 27 251 37 29 11 120 5 128 -9 3 -4 -5 -25 -17 -46 -17 -29 -29 -40
-47 -40 -18 0 -30 -11 -48 -42 -27 -49 -64 -78 -132 -103 -27 -10 -126 -72
-222 -137 -95 -66 -184 -126 -198 -133 -14 -7 -55 -41 -91 -77 l-66 -65 -38
16 c-76 32 -126 12 -159 -63 -15 -32 -27 -42 -60 -53 -68 -22 -98 -98 -83
-212 4 -31 -20 -29 -26 2 -8 41 -50 56 -133 49 -64 -6 -65 -6 -75 21 -6 15
-13 41 -16 59 l-6 32 52 -6 c47 -5 51 -4 51 15 0 23 -72 62 -125 67 -26 2 -30
7 -41 53 -18 83 -50 104 -92 59 -25 -27 -52 -88 -52 -118 0 -14 -25 -47 -65
-88 -36 -36 -70 -73 -75 -81 -7 -12 -13 -12 -27 -4 -17 10 -23 28 -38 97 -4
21 -11 27 -30 27 -37 0 -30 24 10 39 20 7 42 23 51 36 14 21 14 27 -1 55 -16
31 -16 33 4 51 12 11 21 29 21 39 0 27 -35 60 -63 60 -13 0 -26 9 -32 21 -7
15 -46 35 -130 68 -66 26 -129 52 -140 59 -18 10 -17 11 12 12 19 0 36 -6 41
-16 11 -20 41 -15 56 8 21 34 -2 41 -222 73 -78 11 -107 12 -121 3 -15 -9 -31
-6 -77 12 -150 61 -260 119 -299 159 l-39 41 36 0 c46 0 68 8 68 25 0 10 13
13 43 12 38 -2 42 0 42 22 0 22 -7 27 -55 38 -30 8 -101 36 -156 63 -86 42
-118 64 -202 144 -54 52 -113 101 -130 110 -17 9 -33 24 -36 33 -3 10 -29 29
-57 41 -45 21 -53 30 -72 75 -35 87 -194 400 -237 466 -57 88 -85 146 -109
226 -36 119 -67 475 -42 475 5 0 14 -13 21 -29 6 -17 32 -58 56 -92 27 -38 44
-74 44 -91 0 -26 8 -33 37 -29 7 1 21 -3 32 -9 31 -16 51 -2 51 37 0 39 12 37
40 -9 10 -17 28 -35 41 -42 14 -7 29 -30 39 -61 39 -116 128 -235 176 -235 15
0 30 -12 44 -35 24 -39 49 -46 57 -15 7 28 19 17 52 -48 49 -97 73 -189 66
-253 -5 -42 -3 -58 8 -67 25 -21 43 -3 60 56 20 70 100 202 169 277 52 57 52
57 61 32 11 -35 31 -40 61 -16 17 13 33 18 46 14 16 -5 29 2 55 29 19 20 43
36 56 36 34 0 83 35 150 108 36 39 64 62 66 55 3 -7 13 -13 23 -13 13 0 21 12
29 45 10 40 20 51 104 113 81 60 97 77 132 141 35 64 90 121 117 121 4 0 8
-17 10 -37z m-282 7 c0 -5 -4 -10 -10 -10 -5 0 -10 5 -10 10 0 6 5 10 10 10 6
0 10 -4 10 -10z m-1364 -67 c-13 -13 -28 15 -20 38 l7 24 10 -28 c5 -16 6 -31
3 -34z m1942 -10 c14 -63 -2 -153 -27 -153 -20 0 -27 129 -10 179 14 39 25 31
37 -26z m-523 -27 c17 -12 17 -16 5 -31 -22 -26 -100 -77 -100 -65 0 26 53
110 70 110 3 0 15 -6 25 -14z m-170 -63 c-4 -10 -12 -37 -18 -61 -6 -23 -15
-41 -21 -39 -19 6 -17 51 4 85 21 34 48 45 35 15z m-4557 -40 c31 -23 42 -43
23 -43 -5 0 -31 20 -58 46 -50 47 -30 45 35 -3z m2766 -86 c-30 -59 -57 -107
-59 -107 -13 0 41 120 83 183 44 66 34 34 -24 -76z m-2659 23 c3 -5 1 -10 -4
-10 -6 0 -11 5 -11 10 0 6 2 10 4 10 3 0 8 -4 11 -10z m5871 -73 c11 -36 -4
-27 -40 23 -20 27 -36 53 -36 57 0 13 70 -61 76 -80z m-1710 25 c-11 -10 -15
4 -8 28 l7 25 3 -23 c2 -13 1 -26 -2 -30z m2630 22 c24 -14 44 -29 44 -33 0
-4 -12 -14 -27 -22 -20 -11 -27 -11 -30 -1 -6 17 -43 15 -65 -5 -20 -18 -178
-33 -178 -17 0 11 177 104 197 104 8 0 34 -12 59 -26z m-6838 -27 c22 -21 30
-57 12 -57 -9 0 -60 72 -60 85 0 8 21 -4 48 -28z m2971 -69 c11 -52 39 -144
61 -204 44 -114 63 -214 41 -214 -14 0 -53 84 -71 150 -6 24 -23 104 -36 179
-36 201 -32 270 5 89z m2812 80 c11 -21 11 -22 -4 -9 -10 7 -17 17 -17 22 0
15 9 10 21 -13z m-1771 -153 c0 -14 -4 -25 -9 -25 -12 0 -19 21 -13 38 8 21
22 13 22 -13z m2563 8 c-13 -2 -33 -2 -45 0 -13 2 -3 4 22 4 25 0 35 -2 23 -4z
m-2976 -57 l15 -31 -31 35 c-32 37 -42 61 -15 39 8 -7 22 -26 31 -43z m4079
-136 c66 -79 130 -177 122 -186 -4 -3 -52 38 -107 92 -94 90 -171 195 -171
233 0 20 91 -61 156 -139z m-3716 91 c0 -5 -23 -39 -51 -77 -56 -75 -57 -56
-2 38 19 32 38 56 44 53 5 -4 9 -10 9 -14z m1275 -172 c25 -31 30 -59 10 -61
-9 -1 -54 68 -55 85 0 16 20 5 45 -24z m105 -4 c7 -8 8 -15 2 -15 -5 0 -15 7
-22 15 -7 8 -8 15 -2 15 5 0 15 -7 22 -15z m-2276 -149 c17 -36 22 -96 8 -96
-8 0 -42 106 -42 130 0 19 17 2 34 -34z m176 -76 c27 -55 50 -103 50 -107 0
-11 -51 39 -81 81 -22 29 -29 50 -29 83 0 23 2 43 5 43 3 0 27 -45 55 -100z
m2400 60 c14 -11 19 -20 12 -20 -13 0 -92 47 -92 55 0 8 55 -16 80 -35z m1368
-34 c3 -12 -1 -17 -10 -14 -7 3 -15 13 -16 22 -3 12 1 17 10 14 7 -3 15 -13
16 -22z m-5985 -13 c-7 -2 -21 -2 -30 0 -10 3 -4 5 12 5 17 0 24 -2 18 -5z
m4763 -98 c14 -56 -25 -76 -51 -25 -21 41 -19 50 15 50 23 0 31 -5 36 -25z
m-4626 -94 c0 -21 -16 -2 -24 29 -7 24 -6 24 8 6 9 -11 16 -27 16 -35z m6151
26 c-13 -13 -26 -3 -16 12 3 6 11 8 17 5 6 -4 6 -10 -1 -17z m-4011 -27 c7
-13 7 -21 -1 -26 -13 -8 -34 13 -44 44 -6 22 -5 23 14 13 11 -6 25 -20 31 -31z
m2376 -27 c-8 -9 -46 32 -46 50 0 7 12 -1 27 -15 15 -15 23 -31 19 -35z
m-2376 -60 c36 5 41 2 63 -32 14 -20 47 -59 74 -87 26 -27 62 -65 78 -84 l30
-34 -40 34 c-22 18 -68 59 -103 89 -35 31 -93 74 -130 97 -39 23 -68 49 -70
60 -3 14 4 11 28 -15 28 -30 36 -33 70 -28z m2561 -100 c27 -20 47 -39 44 -41
-4 -4 -105 66 -105 74 0 10 16 1 61 -33z m-5942 -17 c19 -20 21 -26 9 -26 -26
0 -118 23 -118 29 0 4 12 14 27 23 31 18 45 14 82 -26z m2005 -79 c14 -10 16
-16 7 -21 -13 -9 -37 8 -52 36 -9 17 -8 18 8 9 10 -5 27 -16 37 -24z m-1439
-28 c-18 -5 -33 -5 -39 1 -7 7 4 10 30 9 39 -1 39 -1 9 -10z m6735 -28 c71
-22 90 -31 76 -37 -11 -4 -47 0 -85 9 -36 10 -84 17 -106 17 -36 1 -75 18 -75
34 0 15 103 3 190 -23z m-840 -21 c0 -5 -9 -10 -20 -10 -11 0 -20 5 -20 10 0
6 9 10 20 10 11 0 20 -4 20 -10z m135 -10 c17 -7 15 -9 -12 -9 -17 -1 -35 4
-38 9 -7 12 22 12 50 0z m-2750 -58 c-3 -3 -18 7 -33 23 l-27 28 33 -23 c18
-12 31 -25 27 -28z m3015 8 c20 -6 14 -8 -27 -9 -29 -1 -53 3 -53 9 0 12 44
12 80 0z m-540 -20 c8 -5 11 -10 5 -10 -5 0 -17 5 -25 10 -8 5 -10 10 -5 10 6
0 17 -5 25 -10z m1325 -19 c-6 -6 -25 -6 -45 -1 l-35 8 45 1 c27 1 40 -3 35
-8z m-546 -88 c51 -25 66 -28 167 -28 l111 0 57 -38 c31 -21 54 -42 51 -47
-18 -30 94 -318 148 -380 l22 -25 -24 20 c-13 11 -32 37 -42 57 -21 40 -52 56
-74 38 -25 -21 -17 -50 30 -116 25 -34 45 -65 45 -68 0 -2 -15 -6 -32 -8 -28
-3 -34 -8 -36 -31 -3 -23 -7 -27 -20 -21 -9 4 -48 18 -86 31 -38 13 -76 29
-84 36 -9 6 -57 75 -108 152 -105 158 -107 160 -152 198 -22 18 -45 27 -68 27
-43 0 -44 -16 -1 -34 42 -18 85 -65 134 -146 68 -112 70 -120 20 -71 -30 28
-51 42 -61 38 -25 -10 -19 -28 26 -74 23 -23 39 -45 36 -49 -4 -3 -89 33 -190
80 -102 47 -188 86 -192 86 -4 0 -35 13 -69 29 -34 16 -82 34 -107 41 -42 11
-43 13 -25 27 44 32 55 35 55 14 0 -11 9 -25 20 -31 27 -14 50 10 96 102 20
40 53 98 74 128 20 30 39 63 43 73 5 14 20 17 93 17 75 0 95 -4 143 -27z
m-4239 -61 c37 -26 77 -78 67 -88 -2 -3 -30 6 -61 20 -44 20 -56 30 -56 47 0
13 -10 33 -22 47 l-23 23 29 -11 c16 -6 46 -23 66 -38z m-800 -281 c-1 -12 -6
-10 -20 8 -11 12 -17 28 -13 34 8 12 33 -20 33 -42z m-70 7 c1 -7 14 -28 30
-47 34 -39 31 -51 -11 -51 -38 0 -82 22 -108 56 -33 43 -34 42 72 52 9 1 17
-4 17 -10z m4589 1 c18 -6 29 -15 24 -20 -9 -9 -153 -21 -153 -13 0 8 65 44
81 44 9 0 31 -5 48 -11z m-2790 -185 c48 -15 80 -29 73 -31 -14 -5 -138 31
-162 47 -24 16 -2 12 89 -16z m4020 -68 c29 -36 62 -93 76 -131 14 -37 37 -83
50 -103 51 -75 22 -61 -47 23 -50 60 -72 94 -70 110 2 16 -14 38 -62 83 -58
53 -63 62 -45 67 11 4 27 1 35 -6 12 -10 13 -9 8 5 -11 30 4 17 55 -48z
m-5086 8 c9 -3 17 -11 17 -17 0 -7 9 -18 21 -25 12 -7 19 -15 17 -18 -7 -6
-108 30 -154 55 l-39 22 60 -6 c33 -4 68 -8 78 -11z m4344 5 c43 -16 155 -80
150 -86 -5 -5 -187 84 -187 92 0 7 5 6 37 -6z m-4184 -57 c9 -8 17 -19 17 -24
0 -11 -93 36 -110 57 -12 15 -9 15 31 -1 24 -9 52 -24 62 -32z m2357 4 c0 -7
-9 -16 -20 -19 -22 -6 -23 -5 -14 17 8 20 34 21 34 2z m634 -45 c3 -5 -9 -18
-27 -30 -27 -17 -33 -18 -35 -5 -7 31 46 61 62 35z m-1261 -27 c26 -9 50 -21
53 -26 11 -17 -75 -4 -126 20 l-45 20 36 1 c19 1 56 -6 82 -15z m607 -4 c0
-12 -28 -25 -36 -17 -9 9 6 27 22 27 8 0 14 -5 14 -10z m32 -32 c-7 -7 -12 -8
-12 -2 0 14 12 26 19 19 2 -3 -1 -11 -7 -17z m62 -153 c25 -94 39 -105 134
-105 62 0 62 0 62 -29 0 -17 8 -34 20 -42 19 -13 20 -19 11 -87 -12 -93 -27
-115 -96 -141 -66 -25 -85 -26 -111 -7 -15 12 -17 17 -6 27 20 21 15 29 -33
49 -29 12 -49 29 -55 45 -10 26 -29 32 -46 15 -10 -10 -73 27 -74 42 0 4 25
15 55 23 51 15 73 30 62 41 -3 3 -48 7 -101 9 -99 5 -151 21 -163 52 -12 31
128 135 200 148 20 4 54 21 74 37 27 21 39 26 42 16 2 -7 14 -49 25 -93z
m-2264 18 c0 -15 -27 -7 -52 15 -29 25 -20 33 17 15 19 -9 35 -22 35 -30z
m1830 -41 c0 -8 -117 -52 -139 -52 -27 0 2 19 59 39 61 22 80 25 80 13z m-170
-62 c0 -5 -4 -10 -10 -10 -5 0 -10 5 -10 10 0 6 5 10 10 10 6 0 10 -4 10 -10z
m-951 -186 c35 -25 11 -41 -28 -18 -17 10 -31 22 -31 26 0 14 34 9 59 -8z
m421 -103 c0 -12 -20 -25 -27 -18 -7 7 6 27 18 27 5 0 9 -4 9 -9z m240 -37 c0
-11 -5 -14 -16 -10 -9 3 -18 6 -20 6 -3 0 -2 5 1 10 10 16 35 12 35 -6z m1270
-44 c11 -20 8 -20 -105 -19 -108 1 -141 10 -95 24 10 3 29 1 41 -5 17 -10 29
-7 67 13 51 26 73 23 92 -13z m-642 -88 c12 -25 11 -29 -18 -54 -39 -35 -47
-35 -55 2 -8 36 16 80 43 80 9 0 23 -12 30 -28z m1015 -18 c47 -25 171 -109
186 -128 11 -14 11 -16 -3 -16 -23 0 -296 138 -296 150 0 16 78 12 113 -6z
m-620 -93 c-2 -24 -17 -69 -33 -100 -28 -54 -29 -55 -30 -24 0 41 18 126 38
172 13 32 16 34 22 16 4 -11 5 -40 3 -64z m-7 -259 c-12 -11 -18 7 -10 30 l8
23 4 -23 c2 -13 1 -26 -2 -30z m-380 -177 c20 -8 33 -19 29 -25 -10 -17 -30
-11 -55 15 -27 29 -23 31 26 10z m890 -517 c52 -55 133 -168 120 -168 -12 0
-76 63 -76 75 0 6 -33 50 -72 96 -73 84 -52 82 28 -3z m274 -205 c93 -81 158
-150 195 -207 l19 -29 -21 12 c-35 18 -252 231 -285 280 -39 55 -27 48 92 -56z
m540 -393 c0 -17 -15 -11 -28 11 -12 19 -11 19 8 9 11 -6 20 -15 20 -20z m172
-193 c23 -28 26 -37 12 -29 -31 16 -114 97 -114 111 0 17 64 -34 102 -82z
m209 -93 c54 -36 99 -70 99 -74 0 -16 -17 -19 -51 -11 -19 5 -46 12 -61 15
-20 5 -28 13 -28 27 0 11 -16 41 -36 65 -20 24 -33 44 -29 44 3 0 51 -30 106
-66z m-295 -31 c15 -35 19 -150 5 -171 -10 -17 -21 31 -21 97 -1 31 -9 59 -25
86 -14 22 -25 46 -25 54 0 22 50 -28 66 -66z m135 -47 c30 -12 68 -26 84 -30
17 -4 46 -11 66 -17 l36 -9 -31 -34 c-23 -25 -35 -31 -48 -25 -26 14 -91 10
-115 -6 -23 -16 -44 -67 -40 -100 1 -14 -4 -20 -18 -20 -15 0 -19 6 -18 25 2
14 6 73 9 133 4 59 10 107 14 107 4 0 32 -11 61 -24z m964 -13 c8 -20 13 -38
10 -41 -7 -7 -113 26 -120 38 -6 10 49 38 77 39 11 1 23 -13 33 -36z m-139
-121 c53 -70 40 -73 -26 -5 -33 33 -60 66 -60 72 0 19 49 -19 86 -67z m-541
30 c11 -18 37 -56 58 -85 20 -28 37 -55 37 -60 0 -5 -12 -7 -27 -5 -21 2 -33
14 -51 48 -14 25 -37 67 -53 93 -29 48 -29 48 -7 45 13 -2 32 -18 43 -36z
m155 -12 c17 -9 70 -93 70 -111 0 -5 -9 -9 -19 -9 -13 0 -32 20 -55 59 -20 32
-36 61 -36 65 0 9 19 7 40 -4z m-326 -81 c14 -17 26 -37 26 -45 0 -21 -28 -17
-35 6 -7 21 -49 28 -60 10 -12 -19 -25 -10 -25 18 0 36 6 42 41 42 18 0 36
-10 53 -31z m484 -129 c25 -22 69 -54 98 -71 60 -34 80 -55 43 -44 -65 19
-234 155 -193 155 3 0 26 -18 52 -40z m-151 -6 c20 -31 42 -114 36 -131 -8
-20 -53 -16 -59 5 -4 9 -19 45 -34 79 -16 34 -26 64 -22 67 16 16 63 4 79 -20z
m-443 -6 c5 -9 8 -20 4 -23 -9 -10 -58 17 -58 32 0 20 40 13 54 -9z m141 1
c12 -19 -5 -23 -22 -6 -16 16 -16 17 -1 17 9 0 20 -5 23 -11z m179 -45 c3 -8
2 -12 -4 -9 -6 3 -10 10 -10 16 0 14 7 11 14 -7z m-79 -53 c5 -17 4 -22 -6
-19 -8 3 -15 18 -17 34 -4 33 11 24 23 -15z m-231 0 c8 -13 -4 -42 -15 -35
-12 7 -12 44 0 44 6 0 12 -4 15 -9z"/>
<path d="M8130 2785 c35 -37 88 -60 155 -69 42 -6 40 -4 -42 26 -28 10 -68 32
-88 48 -51 41 -66 38 -25 -5z"/>
<path d="M3304 10026 c-41 -13 -183 -105 -239 -155 -16 -15 -49 -40 -72 -55
-58 -39 -117 -104 -147 -164 -31 -61 -77 -250 -64 -258 16 -10 24 7 47 101 45
182 79 222 369 428 63 44 136 77 147 65 3 -2 0 -42 -6 -88 -20 -147 6 -450 39
-450 13 0 14 14 6 108 -11 127 -8 291 5 387 14 97 2 108 -85 81z"/>
<path d="M251 9626 c-10 -11 -1 -22 46 -58 55 -41 257 -258 249 -266 -2 -2
-22 8 -45 22 -22 14 -61 31 -85 38 -32 8 -64 30 -115 77 -60 57 -82 71 -158
98 -130 47 -143 48 -143 20 0 -21 11 -28 101 -58 129 -43 152 -58 89 -59 -40
0 -86 10 -167 35 -21 7 -23 4 -23 -36 l0 -44 83 -42 c45 -24 142 -70 216 -102
73 -33 142 -68 153 -78 11 -10 40 -48 63 -85 30 -46 58 -75 89 -93 66 -38 77
-26 20 22 -48 40 -93 107 -81 119 20 20 182 -108 212 -166 24 -49 134 -696
145 -858 5 -68 13 -129 19 -135 5 -7 21 -54 35 -105 14 -52 29 -99 34 -105 14
-18 126 -310 160 -417 61 -191 108 -451 133 -739 12 -125 11 -151 -3 -219 -16
-74 -16 -79 3 -118 17 -37 18 -47 7 -87 -13 -50 -15 -43 43 -147 22 -40 25
-122 8 -181 -11 -34 -9 -42 15 -83 15 -26 24 -51 21 -56 -16 -25 8 -50 62 -66
46 -13 57 -21 68 -48 14 -34 189 -199 231 -218 29 -13 54 3 54 37 0 21 3 22
78 18 93 -5 156 -20 176 -42 8 -9 22 -43 31 -76 32 -115 45 -135 94 -135 11 0
23 -5 27 -12 5 -8 -33 -10 -157 -5 -97 4 -170 2 -179 -3 -10 -7 -11 -10 -2
-10 6 0 12 -4 12 -10 0 -5 -26 -17 -57 -25 -180 -49 -250 -83 -358 -170 -47
-39 -57 -42 -125 -47 -181 -14 -536 -78 -558 -100 -16 -16 -98 -37 -148 -38
-27 0 -50 7 -67 20 -14 11 -29 20 -33 20 -5 0 -31 11 -59 24 -27 14 -84 40
-125 59 -125 56 -184 100 -209 152 -14 30 -19 51 -13 61 12 22 -57 200 -98
254 l-20 25 0 -113 c0 -91 3 -114 15 -118 11 -5 13 -16 9 -43 -5 -34 -1 -43
45 -98 50 -60 73 -109 85 -184 10 -56 41 -77 147 -99 132 -28 283 -37 305 -19
10 8 47 14 103 15 55 1 109 9 151 23 37 12 132 27 220 36 172 18 302 46 340
73 14 10 47 24 75 31 157 39 319 129 333 184 6 22 15 33 30 35 13 2 23 -2 24
-10 0 -7 2 -17 2 -23 4 -28 18 -33 72 -28 41 5 58 2 64 -8 6 -8 34 -15 79 -17
67 -4 71 -6 71 -29 0 -53 84 -163 125 -163 21 0 19 17 -4 29 -33 18 -82 89
-88 127 -8 47 6 40 72 -34 45 -50 49 -58 67 -155 17 -89 18 -111 7 -175 -18
-110 -30 -104 275 -131 97 -9 120 -15 194 -51 63 -30 88 -38 96 -30 8 9 2 19
-21 39 -18 15 -33 30 -33 34 0 4 28 4 61 0 50 -5 61 -4 57 8 -2 7 -23 17 -46
21 -34 6 -131 37 -202 64 -9 4 4 12 35 23 42 13 50 20 53 44 3 25 6 27 53 27
27 0 49 4 49 8 0 5 -6 9 -13 9 -7 0 -26 8 -42 19 -28 18 -28 19 -7 22 12 2 22
7 22 12 0 13 -60 60 -78 61 -9 1 -23 2 -31 3 -8 0 -27 21 -41 46 -15 25 -44
63 -64 85 -47 50 -134 181 -175 262 -27 54 -51 86 -51 68 0 -21 109 -215 158
-281 33 -45 73 -101 88 -125 16 -24 41 -61 57 -82 16 -21 28 -40 26 -42 -2 -2
-24 6 -47 17 -24 10 -51 17 -59 14 -25 -10 -10 -39 26 -48 28 -8 32 -13 27
-31 -3 -12 -6 -28 -6 -34 0 -27 -66 -14 -114 23 l-47 35 22 18 c28 23 22 33
-56 82 -35 22 -71 51 -80 66 -17 25 -17 27 1 40 17 12 17 16 0 88 -11 47 -31
95 -52 126 -19 28 -34 57 -34 65 0 30 -99 140 -165 183 -67 45 -105 91 -167
205 -33 59 -44 67 -83 60 -19 -3 -47 2 -75 15 -25 11 -65 23 -88 27 -39 6 -43
9 -52 48 -33 131 -82 229 -121 241 l-21 7 24 26 c21 23 48 73 48 87 0 3 -7 5
-15 5 -8 0 -21 -15 -29 -34 -8 -18 -23 -40 -34 -47 -11 -8 -22 -26 -24 -39 -4
-25 -4 -25 -17 5 -7 17 -27 46 -45 65 -18 19 -48 58 -67 85 -32 47 -34 54 -31
125 1 41 3 203 5 360 3 250 5 289 21 318 10 19 15 36 12 39 -5 6 -46 -57 -46
-71 0 -29 -15 16 -41 121 -15 65 -44 159 -64 208 -19 50 -51 133 -71 185 l-37
95 -7 325 c-8 340 -14 420 -35 420 -15 0 -29 -123 -14 -128 10 -4 11 -459 0
-507 -6 -28 -9 -23 -42 60 -21 50 -39 119 -43 155 -4 36 -18 124 -32 197 -17
96 -24 168 -24 260 0 160 -12 266 -51 462 -37 184 -42 199 -72 210 -12 5 -35
33 -52 62 -53 99 -172 273 -232 339 -32 36 -83 94 -113 129 -47 55 -157 141
-180 141 -4 0 -13 -6 -19 -14z m195 -321 c10 -8 14 -15 8 -15 -5 0 -19 7 -30
15 -10 8 -14 15 -8 15 5 0 19 -7 30 -15z m471 -782 c-3 -10 -5 -4 -5 12 0 17
2 24 5 18 2 -7 2 -21 0 -30z m392 -1588 c30 -141 37 -197 33 -268 -3 -63 -19
-33 -27 50 -3 43 -20 157 -36 253 -16 96 -29 177 -28 180 2 19 34 -97 58 -215z
m-2 -617 c-3 -8 -6 -5 -6 6 -1 11 2 17 5 13 3 -3 4 -12 1 -19z m137 -287 c-7
-8 -44 32 -44 48 0 11 8 6 24 -14 13 -16 22 -32 20 -34z m205 -191 c0 -18 -24
25 -33 60 -5 19 -2 16 13 -10 11 -19 20 -42 20 -50z m-141 27 c2 -15 -2 -27
-8 -27 -12 0 -30 41 -23 53 9 16 28 0 31 -26z m125 -83 c38 -77 46 -119 9 -47
-11 21 -30 46 -41 55 -20 17 -30 68 -13 68 4 0 25 -34 45 -76z m-184 44 c16
-42 -28 -67 -49 -29 -17 33 -12 51 15 51 17 0 28 -7 34 -22z m107 -92 c5 -30
4 -38 -7 -34 -17 6 -33 54 -25 75 9 23 23 5 32 -41z m46 -113 c27 -24 22 -36
-7 -17 -14 9 -25 20 -25 25 0 14 11 11 32 -8z m233 -18 l50 -23 -50 0 c-57 0
-147 28 -153 48 -7 20 92 4 153 -25z m-75 -125 c0 -5 -4 -10 -9 -10 -6 0 -13
5 -16 10 -3 6 1 10 9 10 9 0 16 -4 16 -10z m235 0 c3 -5 -1 -10 -9 -10 -9 0
-16 5 -16 10 0 6 4 10 9 10 6 0 13 -4 16 -10z m288 -416 c41 -21 39 -18 31
-38 -9 -23 -27 -20 -57 12 -43 45 -32 55 26 26z m-513 -16 c-28 -23 -149 -83
-155 -76 -7 6 148 98 165 98 10 -1 7 -7 -10 -22z m-155 -34 c-26 -20 -75 -46
-75 -39 0 7 73 54 85 54 6 0 1 -7 -10 -15z m-1254 -214 c147 -30 196 -50 124
-50 -50 0 -211 27 -247 41 -26 11 -47 39 -28 39 5 0 73 -13 151 -30z m2089
-100 c24 -47 25 -61 5 -54 -17 7 -45 94 -30 94 2 0 14 -18 25 -40z m-34 -117
c19 -25 17 -33 -5 -33 -23 0 -35 15 -27 35 7 20 16 19 32 -2z m125 -18 l34
-14 -31 -1 c-16 0 -39 7 -50 15 -16 12 -16 14 -3 15 9 0 32 -7 50 -15z"/>
<path d="M791 9510 c-2 -8 -2 -61 -2 -118 1 -57 -4 -112 -10 -123 -14 -27 -6
-34 15 -14 12 12 16 34 15 83 -1 72 -15 197 -18 172z"/>
<path d="M2685 9238 c-53 -30 -191 -147 -226 -190 -43 -55 -106 -178 -114
-223 -6 -34 7 -61 24 -51 6 4 11 17 11 29 0 12 19 60 42 107 37 76 54 98 172
212 121 118 142 145 91 116z"/>
<path d="M2253 8562 c-40 -37 -73 -71 -73 -75 0 -18 85 41 121 84 22 26 39 50
39 53 0 15 -20 1 -87 -62z"/>
<path d="M2841 8548 c-13 -7 -22 -17 -20 -21 5 -10 259 -16 259 -7 0 26 -200
49 -239 28z"/>
<path d="M7617 8275 c12 -16 44 -52 72 -80 28 -27 51 -55 51 -62 0 -7 5 -13
10 -13 35 0 -29 86 -114 153 l-41 32 22 -30z"/>
<path d="M6547 7410 c-14 -11 -34 -20 -45 -20 -25 0 -72 -37 -72 -56 0 -8 -7
-17 -15 -20 -23 -9 -18 -22 16 -52 45 -38 70 -51 100 -52 14 0 40 -11 59 -25
43 -32 58 -31 97 4 35 31 34 20 3 140 -14 52 -59 101 -93 101 -13 0 -36 -9
-50 -20z m82 -46 c39 -50 20 -60 -29 -16 -29 27 -31 42 -4 42 7 0 22 -12 33
-26z"/>
<path d="M7756 7219 c-42 -10 -74 -31 -143 -96 -46 -43 -52 -65 -32 -122 14
-39 35 -45 144 -39 70 4 90 9 125 32 59 39 81 78 68 124 -6 20 -20 47 -32 58
-11 12 -27 29 -34 38 -14 18 -37 19 -96 5z m60 -168 c-17 -32 -56 -46 -111
-39 -53 6 -38 25 27 37 41 7 68 17 78 30 21 26 24 9 6 -28z"/>
<path d="M6925 7055 c-8 -14 -22 -36 -30 -50 -19 -30 -45 -34 -38 -5 7 27 -3
25 -40 -6 -26 -22 -36 -25 -78 -19 -52 7 -75 -8 -45 -30 14 -11 15 -19 7 -56
-6 -24 -15 -91 -21 -149 -9 -83 -8 -114 3 -150 11 -40 16 -45 46 -48 18 -2 39
2 48 9 8 7 28 12 44 11 19 -2 29 2 29 11 0 8 11 19 25 25 23 11 27 9 35 -13 7
-20 17 -25 42 -25 39 0 108 -25 163 -60 l40 -25 -45 -8 c-25 -5 -70 -17 -100
-27 -144 -49 -210 -60 -210 -37 0 7 -6 21 -13 32 -13 17 -17 17 -60 2 -45 -15
-47 -15 -57 3 -5 10 -10 25 -10 33 0 8 -7 20 -15 27 -13 11 -18 10 -31 -8 -22
-31 -29 -28 -43 19 -7 23 -30 82 -52 132 -47 107 -48 132 -4 95 41 -35 133
-80 139 -69 3 5 3 23 0 40 -5 23 -14 33 -41 42 -19 6 -37 8 -40 5 -3 -3 -18 3
-32 13 -14 10 -48 23 -76 30 -48 12 -50 12 -72 -14 -13 -15 -23 -39 -23 -57 0
-17 -9 -45 -19 -62 -11 -17 -36 -69 -56 -116 -20 -47 -64 -140 -98 -206 -55
-110 -60 -124 -47 -139 8 -10 14 -26 12 -36 -2 -11 5 -20 18 -24 12 -4 44 -27
72 -52 59 -52 90 -67 260 -128 117 -42 139 -46 300 -60 95 -8 207 -22 249 -31
l77 -16 36 28 c35 28 36 30 34 94 -1 52 4 77 26 124 18 40 32 94 41 162 7 56
18 111 24 122 6 12 11 41 11 66 0 51 -16 66 -72 66 -36 0 -157 63 -141 73 6 4
30 9 54 13 88 14 173 74 209 150 12 24 31 49 42 55 20 11 22 56 1 52 -6 -1
-10 5 -9 14 1 10 -11 19 -32 25 -19 5 -50 25 -69 44 -48 48 -92 74 -126 74
-15 0 -49 11 -75 24 -26 13 -71 26 -100 29 -48 6 -53 4 -67 -18z m147 -50 c29
-13 69 -27 89 -30 23 -3 52 -20 78 -44 37 -34 40 -41 35 -72 -8 -42 -60 -126
-82 -133 -9 -3 -46 -10 -82 -16 -36 -7 -80 -18 -99 -26 -19 -8 -71 -24 -114
-35 -44 -11 -98 -29 -120 -41 -53 -27 -60 -15 -51 87 4 44 7 101 6 127 -2 55
12 98 31 98 8 0 35 11 61 24 27 13 59 27 72 30 14 4 30 18 36 31 15 33 69 34
140 0z m-632 -257 c0 -13 12 -50 26 -83 14 -33 37 -94 50 -135 14 -41 33 -89
43 -105 23 -40 35 -82 36 -125 0 -30 4 -35 27 -38 20 -2 37 7 71 40 24 24 46
49 49 57 3 12 9 11 31 -4 36 -23 116 -12 241 36 58 23 224 54 233 45 4 -3 -5
-32 -20 -64 -48 -103 -67 -171 -60 -217 8 -65 -19 -134 -73 -184 l-45 -41 -97
10 c-53 5 -140 12 -192 15 -52 4 -120 16 -150 26 -30 11 -95 33 -145 50 -122
41 -154 62 -195 125 -18 30 -42 56 -52 60 -25 7 -23 18 18 99 19 39 52 111 73
161 21 50 52 111 68 135 49 72 57 90 43 99 -8 5 -10 18 -6 34 8 32 26 34 26 4z
m870 10 c0 -14 -30 -48 -42 -48 -5 0 -1 14 9 30 18 31 33 39 33 18z m-110 -98
c-8 -5 -25 -10 -36 -10 -12 0 -52 -9 -89 -21 -69 -21 -107 -21 -67 0 48 26
229 55 192 31z m-226 -55 c-7 -17 -20 -20 -28 -6 -7 10 3 21 20 21 8 0 11 -6
8 -15z"/>
<path d="M8130 6202 c0 -10 7 -71 15 -137 8 -66 19 -178 25 -250 8 -90 16
-135 26 -145 13 -13 16 -13 24 -1 5 8 5 22 1 30 -5 9 -11 61 -15 116 -8 110
-41 360 -51 388 -9 22 -25 22 -25 -1z"/>
<path d="M0 4754 c0 -16 10 -34 26 -46 29 -23 26 -35 -5 -18 -19 9 -21 8 -21
-13 0 -17 12 -34 37 -53 21 -16 61 -50 89 -76 35 -33 57 -46 68 -42 23 9 20
32 -14 91 -28 48 -155 183 -172 183 -5 0 -8 -12 -8 -26z"/>
<path d="M1975 4749 c-170 -20 -246 -33 -335 -60 -88 -26 -139 -36 -295 -56
-43 -6 -60 -12 -60 -23 0 -11 15 -16 60 -18 77 -5 168 12 307 54 133 41 318
69 446 68 69 -1 92 2 92 12 0 16 -62 34 -110 33 -19 -1 -66 -5 -105 -10z"/>
<path d="M3625 4380 c-3 -6 -3 -19 0 -30 7 -23 143 -127 225 -172 33 -18 60
-36 60 -40 0 -5 -13 -8 -30 -8 -23 0 -30 -4 -30 -20 0 -21 15 -27 90 -33 48
-4 270 -86 376 -139 36 -18 71 -42 79 -54 35 -54 305 -126 305 -82 0 21 -66
63 -145 93 -70 26 -231 110 -240 126 -10 15 12 10 77 -16 65 -27 78 -29 78
-17 0 9 -111 75 -173 102 -26 12 -118 39 -204 61 -172 43 -246 80 -376 184
-69 56 -81 62 -92 45z"/>
<path d="M4985 3771 c-3 -6 9 -12 27 -15 303 -50 434 -81 478 -117 36 -28 114
-63 290 -129 85 -32 163 -61 173 -65 10 -4 17 -3 17 4 0 23 -444 225 -582 265
-90 26 -310 66 -364 66 -18 0 -35 -4 -39 -9z"/>
<path d="M7618 2618 c-3 -8 -26 -13 -64 -13 -45 0 -59 -3 -59 -15 0 -11 14
-15 60 -15 74 -1 85 2 85 25 0 22 -17 35 -22 18z"/>
<path d="M8560 2450 c0 -12 17 -12 45 0 17 7 15 9 -12 9 -18 1 -33 -3 -33 -9z"/>
<path d="M8798 2344 c-17 -17 -7 -34 21 -34 18 0 57 -20 107 -54 44 -29 121
-79 172 -110 86 -53 106 -76 82 -91 -5 -3 -45 5 -87 18 -114 36 -153 41 -153
23 0 -10 16 -19 43 -26 75 -19 146 -52 321 -146 268 -144 327 -180 416 -257
l84 -71 -45 -14 c-55 -19 -99 -49 -99 -69 0 -17 1 -17 105 13 35 10 72 15 87
11 15 -4 64 -42 110 -85 l84 -77 100 -23 c113 -25 117 -26 109 -12 -9 14 0 13
86 -14 76 -24 120 -43 129 -57 4 -6 310 -109 325 -109 3 0 5 6 5 14 0 8 -29
32 -65 55 -36 22 -65 45 -65 51 0 5 -27 23 -60 39 -81 39 -124 77 -131 115 -6
29 -7 29 -14 9 -9 -29 -22 -29 -65 1 -19 13 -131 74 -248 135 -299 156 -444
240 -534 308 -42 32 -132 89 -200 127 -68 38 -163 94 -213 126 -247 156 -328
202 -363 207 -20 3 -40 1 -44 -3z m1417 -867 c17 -16 -45 2 -110 33 -33 16
-73 43 -90 61 -28 30 -23 28 80 -26 61 -32 115 -62 120 -68z"/>
<path d="M10550 1055 c14 -8 45 -14 70 -14 l45 1 -30 13 c-16 8 -48 14 -70 14
-40 0 -40 0 -15 -14z"/>
<path d="M10347 1035 c-59 -16 -64 -21 -40 -33 19 -10 143 6 143 18 0 6 -47
32 -53 29 -1 0 -24 -7 -50 -14z"/>
<path d="M10791 624 c0 -11 3 -14 6 -6 3 7 2 16 -1 19 -3 4 -6 -2 -5 -13z"/>
</g>
</svg>
